<mxfile host="app.diagrams.net" agent="Mozilla/5.0 (Windows NT 10.0; Win64; x64) AppleWebKit/537.36 (KHTML, like Gecko) Chrome/126.0.0.0 Safari/537.36 Edg/126.0.0.0" version="24.7.10">
  <diagram name="第 1 页" id="08ktoVXegdY-p2ygeXry">
    <mxGraphModel dx="1968" dy="898" grid="0" gridSize="10" guides="1" tooltips="1" connect="1" arrows="1" fold="1" page="0" pageScale="1" pageWidth="827" pageHeight="1169" math="0" shadow="0">
      <root>
        <mxCell id="0" />
        <mxCell id="1" parent="0" />
        <mxCell id="h3pUcmXuetGUe7hEGyPd-1" value="1" style="text;html=1;align=center;verticalAlign=middle;resizable=0;points=[];autosize=1;strokeColor=none;fillColor=none;fontSize=16;" vertex="1" parent="1">
          <mxGeometry x="79" y="11" width="30" height="30" as="geometry" />
        </mxCell>
        <mxCell id="h3pUcmXuetGUe7hEGyPd-3" value="" style="endArrow=none;html=1;rounded=0;fontSize=12;startSize=8;endSize=8;curved=1;" edge="1" parent="1">
          <mxGeometry width="50" height="50" relative="1" as="geometry">
            <mxPoint x="60" y="70" as="sourcePoint" />
            <mxPoint x="90" y="40" as="targetPoint" />
          </mxGeometry>
        </mxCell>
        <mxCell id="h3pUcmXuetGUe7hEGyPd-4" value="2" style="text;html=1;align=center;verticalAlign=middle;resizable=0;points=[];autosize=1;strokeColor=none;fillColor=none;fontSize=16;" vertex="1" parent="1">
          <mxGeometry x="39" y="61" width="30" height="30" as="geometry" />
        </mxCell>
        <mxCell id="h3pUcmXuetGUe7hEGyPd-5" value="" style="endArrow=none;html=1;rounded=0;fontSize=12;startSize=8;endSize=8;curved=1;" edge="1" parent="1">
          <mxGeometry width="50" height="50" relative="1" as="geometry">
            <mxPoint x="20" y="111" as="sourcePoint" />
            <mxPoint x="50" y="81" as="targetPoint" />
          </mxGeometry>
        </mxCell>
        <mxCell id="h3pUcmXuetGUe7hEGyPd-6" value="3" style="text;html=1;align=center;verticalAlign=middle;resizable=0;points=[];autosize=1;strokeColor=none;fillColor=none;fontSize=16;" vertex="1" parent="1">
          <mxGeometry y="100" width="30" height="30" as="geometry" />
        </mxCell>
        <mxCell id="h3pUcmXuetGUe7hEGyPd-7" value="" style="endArrow=none;html=1;rounded=0;fontSize=12;startSize=8;endSize=8;curved=1;" edge="1" parent="1">
          <mxGeometry width="50" height="50" relative="1" as="geometry">
            <mxPoint x="-20" y="150" as="sourcePoint" />
            <mxPoint x="10" y="120" as="targetPoint" />
          </mxGeometry>
        </mxCell>
        <mxCell id="h3pUcmXuetGUe7hEGyPd-8" value="4" style="text;html=1;align=center;verticalAlign=middle;resizable=0;points=[];autosize=1;strokeColor=none;fillColor=none;fontSize=16;" vertex="1" parent="1">
          <mxGeometry x="-40" y="140" width="30" height="30" as="geometry" />
        </mxCell>
        <mxCell id="h3pUcmXuetGUe7hEGyPd-11" value="" style="endArrow=none;html=1;rounded=0;fontSize=12;startSize=8;endSize=8;curved=1;" edge="1" parent="1">
          <mxGeometry width="50" height="50" relative="1" as="geometry">
            <mxPoint x="50" y="150" as="sourcePoint" />
            <mxPoint x="20" y="120" as="targetPoint" />
          </mxGeometry>
        </mxCell>
        <mxCell id="h3pUcmXuetGUe7hEGyPd-12" value="5" style="text;html=1;align=center;verticalAlign=middle;resizable=0;points=[];autosize=1;strokeColor=none;fillColor=none;fontSize=16;" vertex="1" parent="1">
          <mxGeometry x="39" y="141" width="30" height="30" as="geometry" />
        </mxCell>
        <mxCell id="h3pUcmXuetGUe7hEGyPd-13" value="" style="endArrow=none;html=1;rounded=0;fontSize=12;startSize=8;endSize=8;curved=1;" edge="1" parent="1">
          <mxGeometry width="50" height="50" relative="1" as="geometry">
            <mxPoint x="91" y="106" as="sourcePoint" />
            <mxPoint x="61" y="76" as="targetPoint" />
          </mxGeometry>
        </mxCell>
        <mxCell id="h3pUcmXuetGUe7hEGyPd-14" value="6" style="text;html=1;align=center;verticalAlign=middle;resizable=0;points=[];autosize=1;strokeColor=none;fillColor=none;fontSize=16;" vertex="1" parent="1">
          <mxGeometry x="79" y="100" width="30" height="30" as="geometry" />
        </mxCell>
        <mxCell id="h3pUcmXuetGUe7hEGyPd-15" value="" style="endArrow=none;html=1;rounded=0;fontSize=12;startSize=8;endSize=8;curved=1;" edge="1" parent="1">
          <mxGeometry width="50" height="50" relative="1" as="geometry">
            <mxPoint x="130" y="72" as="sourcePoint" />
            <mxPoint x="100" y="42" as="targetPoint" />
          </mxGeometry>
        </mxCell>
        <mxCell id="h3pUcmXuetGUe7hEGyPd-16" value="7" style="text;html=1;align=center;verticalAlign=middle;resizable=0;points=[];autosize=1;strokeColor=none;fillColor=none;fontSize=16;" vertex="1" parent="1">
          <mxGeometry x="120" y="70" width="30" height="30" as="geometry" />
        </mxCell>
        <mxCell id="h3pUcmXuetGUe7hEGyPd-17" value="" style="shape=partialRectangle;whiteSpace=wrap;html=1;bottom=1;right=1;left=1;top=0;fillColor=none;routingCenterX=-0.5;" vertex="1" parent="1">
          <mxGeometry x="-80" y="200" width="57" height="149" as="geometry" />
        </mxCell>
        <mxCell id="h3pUcmXuetGUe7hEGyPd-18" value="1" style="text;html=1;align=center;verticalAlign=middle;resizable=0;points=[];autosize=1;strokeColor=none;fillColor=none;fontSize=16;" vertex="1" parent="1">
          <mxGeometry x="-66.5" y="319" width="30" height="30" as="geometry" />
        </mxCell>
        <mxCell id="h3pUcmXuetGUe7hEGyPd-19" value="2" style="text;html=1;align=center;verticalAlign=middle;resizable=0;points=[];autosize=1;strokeColor=none;fillColor=none;fontSize=16;" vertex="1" parent="1">
          <mxGeometry x="-66.5" y="289" width="30" height="30" as="geometry" />
        </mxCell>
        <mxCell id="h3pUcmXuetGUe7hEGyPd-20" value="3" style="text;html=1;align=center;verticalAlign=middle;resizable=0;points=[];autosize=1;strokeColor=none;fillColor=none;fontSize=16;" vertex="1" parent="1">
          <mxGeometry x="-66.5" y="259" width="30" height="30" as="geometry" />
        </mxCell>
        <mxCell id="h3pUcmXuetGUe7hEGyPd-21" value="4" style="text;html=1;align=center;verticalAlign=middle;resizable=0;points=[];autosize=1;strokeColor=none;fillColor=none;fontSize=16;" vertex="1" parent="1">
          <mxGeometry x="-66.5" y="220" width="30" height="30" as="geometry" />
        </mxCell>
        <mxCell id="h3pUcmXuetGUe7hEGyPd-22" value="先把左子树的所&lt;div&gt;有结点放入栈内&lt;/div&gt;" style="text;html=1;align=center;verticalAlign=middle;resizable=0;points=[];autosize=1;strokeColor=none;fillColor=none;fontSize=16;" vertex="1" parent="1">
          <mxGeometry x="-13" y="229" width="130" height="50" as="geometry" />
        </mxCell>
        <mxCell id="h3pUcmXuetGUe7hEGyPd-24" value="" style="endArrow=classic;html=1;rounded=0;fontSize=12;startSize=8;endSize=8;curved=1;" edge="1" parent="1">
          <mxGeometry width="50" height="50" relative="1" as="geometry">
            <mxPoint x="120" y="263" as="sourcePoint" />
            <mxPoint x="209" y="263" as="targetPoint" />
          </mxGeometry>
        </mxCell>
        <mxCell id="h3pUcmXuetGUe7hEGyPd-25" value="然后进行结点判断&lt;span style=&quot;background-color: initial;&quot;&gt;若结点为空&lt;/span&gt;&lt;div&gt;直接末尾元&lt;span style=&quot;background-color: initial;&quot;&gt;素弹出&lt;/span&gt;&lt;span style=&quot;background-color: initial;&quot;&gt;栈然后加入数组&lt;/span&gt;&lt;/div&gt;&lt;div&gt;&lt;span style=&quot;background-color: initial;&quot;&gt;并将此时的root赋值为弹出元素的右节点&lt;/span&gt;&lt;/div&gt;" style="text;html=1;align=center;verticalAlign=middle;resizable=0;points=[];autosize=1;strokeColor=none;fillColor=none;fontSize=16;" vertex="1" parent="1">
          <mxGeometry x="299" y="232" width="302" height="70" as="geometry" />
        </mxCell>
        <mxCell id="h3pUcmXuetGUe7hEGyPd-26" value="" style="shape=partialRectangle;whiteSpace=wrap;html=1;bottom=1;right=1;left=1;top=0;fillColor=none;routingCenterX=-0.5;" vertex="1" parent="1">
          <mxGeometry x="245" y="199.5" width="57" height="149" as="geometry" />
        </mxCell>
        <mxCell id="h3pUcmXuetGUe7hEGyPd-27" value="1" style="text;html=1;align=center;verticalAlign=middle;resizable=0;points=[];autosize=1;strokeColor=none;fillColor=none;fontSize=16;" vertex="1" parent="1">
          <mxGeometry x="256" y="310" width="30" height="30" as="geometry" />
        </mxCell>
        <mxCell id="h3pUcmXuetGUe7hEGyPd-28" value="2" style="text;html=1;align=center;verticalAlign=middle;resizable=0;points=[];autosize=1;strokeColor=none;fillColor=none;fontSize=16;" vertex="1" parent="1">
          <mxGeometry x="256" y="279" width="30" height="30" as="geometry" />
        </mxCell>
        <mxCell id="h3pUcmXuetGUe7hEGyPd-29" value="3" style="text;html=1;align=center;verticalAlign=middle;resizable=0;points=[];autosize=1;strokeColor=none;fillColor=none;fontSize=16;" vertex="1" parent="1">
          <mxGeometry x="256" y="247" width="30" height="30" as="geometry" />
        </mxCell>
        <mxCell id="h3pUcmXuetGUe7hEGyPd-30" value="4" style="text;html=1;align=center;verticalAlign=middle;resizable=0;points=[];autosize=1;strokeColor=none;fillColor=none;fontSize=16;" vertex="1" parent="1">
          <mxGeometry x="321" y="134.5" width="30" height="30" as="geometry" />
        </mxCell>
        <mxCell id="h3pUcmXuetGUe7hEGyPd-31" value="" style="shape=partialRectangle;whiteSpace=wrap;html=1;bottom=1;right=1;left=1;top=0;fillColor=none;routingCenterX=-0.5;direction=south;" vertex="1" parent="1">
          <mxGeometry x="305" y="121" width="149" height="57" as="geometry" />
        </mxCell>
        <mxCell id="h3pUcmXuetGUe7hEGyPd-32" value="res" style="text;html=1;align=center;verticalAlign=middle;resizable=0;points=[];autosize=1;strokeColor=none;fillColor=none;fontSize=16;" vertex="1" parent="1">
          <mxGeometry x="265" y="130" width="40" height="31" as="geometry" />
        </mxCell>
        <mxCell id="h3pUcmXuetGUe7hEGyPd-33" value="" style="endArrow=classic;html=1;rounded=0;fontSize=12;startSize=8;endSize=8;curved=1;" edge="1" parent="1">
          <mxGeometry width="50" height="50" relative="1" as="geometry">
            <mxPoint x="629" y="266.5" as="sourcePoint" />
            <mxPoint x="718" y="266.5" as="targetPoint" />
          </mxGeometry>
        </mxCell>
        <mxCell id="h3pUcmXuetGUe7hEGyPd-34" value="" style="shape=partialRectangle;whiteSpace=wrap;html=1;bottom=1;right=1;left=1;top=0;fillColor=none;routingCenterX=-0.5;" vertex="1" parent="1">
          <mxGeometry x="745" y="199.5" width="57" height="149" as="geometry" />
        </mxCell>
        <mxCell id="h3pUcmXuetGUe7hEGyPd-35" value="1" style="text;html=1;align=center;verticalAlign=middle;resizable=0;points=[];autosize=1;strokeColor=none;fillColor=none;fontSize=16;" vertex="1" parent="1">
          <mxGeometry x="756" y="310" width="30" height="30" as="geometry" />
        </mxCell>
        <mxCell id="h3pUcmXuetGUe7hEGyPd-36" value="2" style="text;html=1;align=center;verticalAlign=middle;resizable=0;points=[];autosize=1;strokeColor=none;fillColor=none;fontSize=16;" vertex="1" parent="1">
          <mxGeometry x="756" y="279" width="30" height="30" as="geometry" />
        </mxCell>
        <mxCell id="h3pUcmXuetGUe7hEGyPd-37" value="3" style="text;html=1;align=center;verticalAlign=middle;resizable=0;points=[];autosize=1;strokeColor=none;fillColor=none;fontSize=16;" vertex="1" parent="1">
          <mxGeometry x="781" y="136.5" width="30" height="30" as="geometry" />
        </mxCell>
        <mxCell id="h3pUcmXuetGUe7hEGyPd-38" value="4" style="text;html=1;align=center;verticalAlign=middle;resizable=0;points=[];autosize=1;strokeColor=none;fillColor=none;fontSize=16;" vertex="1" parent="1">
          <mxGeometry x="750" y="136.5" width="30" height="30" as="geometry" />
        </mxCell>
        <mxCell id="h3pUcmXuetGUe7hEGyPd-39" value="" style="shape=partialRectangle;whiteSpace=wrap;html=1;bottom=1;right=1;left=1;top=0;fillColor=none;routingCenterX=-0.5;direction=south;" vertex="1" parent="1">
          <mxGeometry x="734" y="123" width="149" height="57" as="geometry" />
        </mxCell>
        <mxCell id="h3pUcmXuetGUe7hEGyPd-40" value="res" style="text;html=1;align=center;verticalAlign=middle;resizable=0;points=[];autosize=1;strokeColor=none;fillColor=none;fontSize=16;" vertex="1" parent="1">
          <mxGeometry x="694" y="132" width="40" height="31" as="geometry" />
        </mxCell>
        <mxCell id="h3pUcmXuetGUe7hEGyPd-41" value="此时4的右节点为null&lt;div&gt;然后继续弹出元素放入数组进行判断&lt;/div&gt;" style="text;html=1;align=center;verticalAlign=middle;resizable=0;points=[];autosize=1;strokeColor=none;fillColor=none;fontSize=16;" vertex="1" parent="1">
          <mxGeometry x="811" y="247" width="274" height="50" as="geometry" />
        </mxCell>
        <mxCell id="h3pUcmXuetGUe7hEGyPd-42" value="3" style="text;html=1;align=center;verticalAlign=middle;resizable=0;points=[];autosize=1;strokeColor=none;fillColor=none;fontSize=16;" vertex="1" parent="1">
          <mxGeometry x="1254" y="140" width="30" height="30" as="geometry" />
        </mxCell>
        <mxCell id="h3pUcmXuetGUe7hEGyPd-43" value="4" style="text;html=1;align=center;verticalAlign=middle;resizable=0;points=[];autosize=1;strokeColor=none;fillColor=none;fontSize=16;" vertex="1" parent="1">
          <mxGeometry x="1223" y="140" width="30" height="30" as="geometry" />
        </mxCell>
        <mxCell id="h3pUcmXuetGUe7hEGyPd-44" value="" style="shape=partialRectangle;whiteSpace=wrap;html=1;bottom=1;right=1;left=1;top=0;fillColor=none;routingCenterX=-0.5;direction=south;" vertex="1" parent="1">
          <mxGeometry x="1207" y="126.5" width="149" height="57" as="geometry" />
        </mxCell>
        <mxCell id="h3pUcmXuetGUe7hEGyPd-45" value="res" style="text;html=1;align=center;verticalAlign=middle;resizable=0;points=[];autosize=1;strokeColor=none;fillColor=none;fontSize=16;" vertex="1" parent="1">
          <mxGeometry x="1167" y="135.5" width="40" height="31" as="geometry" />
        </mxCell>
        <mxCell id="h3pUcmXuetGUe7hEGyPd-46" value="" style="endArrow=classic;html=1;rounded=0;fontSize=12;startSize=8;endSize=8;curved=1;" edge="1" parent="1">
          <mxGeometry width="50" height="50" relative="1" as="geometry">
            <mxPoint x="1073" y="266.5" as="sourcePoint" />
            <mxPoint x="1162" y="266.5" as="targetPoint" />
          </mxGeometry>
        </mxCell>
        <mxCell id="h3pUcmXuetGUe7hEGyPd-47" value="" style="shape=partialRectangle;whiteSpace=wrap;html=1;bottom=1;right=1;left=1;top=0;fillColor=none;routingCenterX=-0.5;" vertex="1" parent="1">
          <mxGeometry x="1184" y="195" width="57" height="149" as="geometry" />
        </mxCell>
        <mxCell id="h3pUcmXuetGUe7hEGyPd-48" value="1" style="text;html=1;align=center;verticalAlign=middle;resizable=0;points=[];autosize=1;strokeColor=none;fillColor=none;fontSize=16;" vertex="1" parent="1">
          <mxGeometry x="1195" y="305.5" width="30" height="30" as="geometry" />
        </mxCell>
        <mxCell id="h3pUcmXuetGUe7hEGyPd-49" value="2" style="text;html=1;align=center;verticalAlign=middle;resizable=0;points=[];autosize=1;strokeColor=none;fillColor=none;fontSize=16;" vertex="1" parent="1">
          <mxGeometry x="1195" y="274.5" width="30" height="30" as="geometry" />
        </mxCell>
        <mxCell id="h3pUcmXuetGUe7hEGyPd-50" value="5" style="text;html=1;align=center;verticalAlign=middle;resizable=0;points=[];autosize=1;strokeColor=none;fillColor=none;fontSize=16;" vertex="1" parent="1">
          <mxGeometry x="1196.5" y="246.5" width="27" height="31" as="geometry" />
        </mxCell>
        <mxCell id="h3pUcmXuetGUe7hEGyPd-51" value="此时3的右节点有值将此时的5放进栈" style="text;html=1;align=center;verticalAlign=middle;resizable=0;points=[];autosize=1;strokeColor=none;fillColor=none;fontSize=16;" vertex="1" parent="1">
          <mxGeometry x="1262" y="254" width="276" height="31" as="geometry" />
        </mxCell>
        <mxCell id="h3pUcmXuetGUe7hEGyPd-53" value="" style="endArrow=classic;html=1;rounded=0;fontSize=12;startSize=8;endSize=8;curved=1;" edge="1" parent="1">
          <mxGeometry width="50" height="50" relative="1" as="geometry">
            <mxPoint x="1156" y="410" as="sourcePoint" />
            <mxPoint x="1154" y="498" as="targetPoint" />
          </mxGeometry>
        </mxCell>
        <mxCell id="h3pUcmXuetGUe7hEGyPd-54" value="3" style="text;html=1;align=center;verticalAlign=middle;resizable=0;points=[];autosize=1;strokeColor=none;fillColor=none;fontSize=16;" vertex="1" parent="1">
          <mxGeometry x="1254" y="427.5" width="30" height="30" as="geometry" />
        </mxCell>
        <mxCell id="h3pUcmXuetGUe7hEGyPd-55" value="4" style="text;html=1;align=center;verticalAlign=middle;resizable=0;points=[];autosize=1;strokeColor=none;fillColor=none;fontSize=16;" vertex="1" parent="1">
          <mxGeometry x="1223" y="427.5" width="30" height="30" as="geometry" />
        </mxCell>
        <mxCell id="h3pUcmXuetGUe7hEGyPd-56" value="" style="shape=partialRectangle;whiteSpace=wrap;html=1;bottom=1;right=1;left=1;top=0;fillColor=none;routingCenterX=-0.5;direction=south;" vertex="1" parent="1">
          <mxGeometry x="1207" y="414" width="149" height="57" as="geometry" />
        </mxCell>
        <mxCell id="h3pUcmXuetGUe7hEGyPd-57" value="res" style="text;html=1;align=center;verticalAlign=middle;resizable=0;points=[];autosize=1;strokeColor=none;fillColor=none;fontSize=16;" vertex="1" parent="1">
          <mxGeometry x="1167" y="423" width="40" height="31" as="geometry" />
        </mxCell>
        <mxCell id="h3pUcmXuetGUe7hEGyPd-58" value="" style="shape=partialRectangle;whiteSpace=wrap;html=1;bottom=1;right=1;left=1;top=0;fillColor=none;routingCenterX=-0.5;" vertex="1" parent="1">
          <mxGeometry x="1184" y="482.5" width="57" height="149" as="geometry" />
        </mxCell>
        <mxCell id="h3pUcmXuetGUe7hEGyPd-59" value="1" style="text;html=1;align=center;verticalAlign=middle;resizable=0;points=[];autosize=1;strokeColor=none;fillColor=none;fontSize=16;" vertex="1" parent="1">
          <mxGeometry x="1195" y="593" width="30" height="30" as="geometry" />
        </mxCell>
        <mxCell id="h3pUcmXuetGUe7hEGyPd-60" value="2" style="text;html=1;align=center;verticalAlign=middle;resizable=0;points=[];autosize=1;strokeColor=none;fillColor=none;fontSize=16;" vertex="1" parent="1">
          <mxGeometry x="1195" y="562" width="30" height="30" as="geometry" />
        </mxCell>
        <mxCell id="h3pUcmXuetGUe7hEGyPd-61" value="5" style="text;html=1;align=center;verticalAlign=middle;resizable=0;points=[];autosize=1;strokeColor=none;fillColor=none;fontSize=16;" vertex="1" parent="1">
          <mxGeometry x="1196.5" y="534" width="27" height="31" as="geometry" />
        </mxCell>
        <mxCell id="h3pUcmXuetGUe7hEGyPd-62" value="此时3的右节点有值将此时的5放进栈" style="text;html=1;align=center;verticalAlign=middle;resizable=0;points=[];autosize=1;strokeColor=none;fillColor=none;fontSize=16;" vertex="1" parent="1">
          <mxGeometry x="1262" y="541.5" width="276" height="31" as="geometry" />
        </mxCell>
        <mxCell id="h3pUcmXuetGUe7hEGyPd-100" value="1" style="text;html=1;align=center;verticalAlign=middle;resizable=0;points=[];autosize=1;strokeColor=none;fillColor=none;fontSize=16;" vertex="1" parent="1">
          <mxGeometry x="13" y="506" width="30" height="30" as="geometry" />
        </mxCell>
        <mxCell id="h3pUcmXuetGUe7hEGyPd-101" value="" style="endArrow=none;html=1;rounded=0;fontSize=12;startSize=8;endSize=8;curved=1;" edge="1" parent="1">
          <mxGeometry width="50" height="50" relative="1" as="geometry">
            <mxPoint x="-6" y="565" as="sourcePoint" />
            <mxPoint x="24" y="535" as="targetPoint" />
          </mxGeometry>
        </mxCell>
        <mxCell id="h3pUcmXuetGUe7hEGyPd-102" value="2" style="text;html=1;align=center;verticalAlign=middle;resizable=0;points=[];autosize=1;strokeColor=none;fillColor=none;fontSize=16;" vertex="1" parent="1">
          <mxGeometry x="-27" y="556" width="30" height="30" as="geometry" />
        </mxCell>
        <mxCell id="h3pUcmXuetGUe7hEGyPd-103" value="" style="endArrow=none;html=1;rounded=0;fontSize=12;startSize=8;endSize=8;curved=1;" edge="1" parent="1">
          <mxGeometry width="50" height="50" relative="1" as="geometry">
            <mxPoint x="-46" y="606" as="sourcePoint" />
            <mxPoint x="-16" y="576" as="targetPoint" />
          </mxGeometry>
        </mxCell>
        <mxCell id="h3pUcmXuetGUe7hEGyPd-104" value="3" style="text;html=1;align=center;verticalAlign=middle;resizable=0;points=[];autosize=1;strokeColor=none;fillColor=none;fontSize=16;" vertex="1" parent="1">
          <mxGeometry x="-66" y="595" width="30" height="30" as="geometry" />
        </mxCell>
        <mxCell id="h3pUcmXuetGUe7hEGyPd-107" value="" style="endArrow=none;html=1;rounded=0;fontSize=12;startSize=8;endSize=8;curved=1;" edge="1" parent="1">
          <mxGeometry width="50" height="50" relative="1" as="geometry">
            <mxPoint x="62" y="651" as="sourcePoint" />
            <mxPoint x="32" y="621" as="targetPoint" />
          </mxGeometry>
        </mxCell>
        <mxCell id="h3pUcmXuetGUe7hEGyPd-108" value="5" style="text;html=1;align=center;verticalAlign=middle;resizable=0;points=[];autosize=1;strokeColor=none;fillColor=none;fontSize=16;" vertex="1" parent="1">
          <mxGeometry x="54" y="646" width="30" height="30" as="geometry" />
        </mxCell>
        <mxCell id="h3pUcmXuetGUe7hEGyPd-109" value="" style="endArrow=none;html=1;rounded=0;fontSize=12;startSize=8;endSize=8;curved=1;" edge="1" parent="1">
          <mxGeometry width="50" height="50" relative="1" as="geometry">
            <mxPoint x="25" y="601" as="sourcePoint" />
            <mxPoint x="-5" y="571" as="targetPoint" />
          </mxGeometry>
        </mxCell>
        <mxCell id="h3pUcmXuetGUe7hEGyPd-110" value="6" style="text;html=1;align=center;verticalAlign=middle;resizable=0;points=[];autosize=1;strokeColor=none;fillColor=none;fontSize=16;" vertex="1" parent="1">
          <mxGeometry x="13" y="595" width="30" height="30" as="geometry" />
        </mxCell>
        <mxCell id="h3pUcmXuetGUe7hEGyPd-111" value="" style="endArrow=none;html=1;rounded=0;fontSize=12;startSize=8;endSize=8;curved=1;" edge="1" parent="1">
          <mxGeometry width="50" height="50" relative="1" as="geometry">
            <mxPoint x="64" y="567" as="sourcePoint" />
            <mxPoint x="34" y="537" as="targetPoint" />
          </mxGeometry>
        </mxCell>
        <mxCell id="h3pUcmXuetGUe7hEGyPd-112" value="7" style="text;html=1;align=center;verticalAlign=middle;resizable=0;points=[];autosize=1;strokeColor=none;fillColor=none;fontSize=16;" vertex="1" parent="1">
          <mxGeometry x="54" y="565" width="30" height="30" as="geometry" />
        </mxCell>
        <mxCell id="h3pUcmXuetGUe7hEGyPd-115" value="" style="shape=partialRectangle;whiteSpace=wrap;html=1;bottom=0;top=0;fillColor=none;direction=south;" vertex="1" parent="1">
          <mxGeometry x="-102" y="737" width="242" height="49" as="geometry" />
        </mxCell>
        <mxCell id="h3pUcmXuetGUe7hEGyPd-116" value="queue" style="text;html=1;align=center;verticalAlign=middle;resizable=0;points=[];autosize=1;strokeColor=none;fillColor=none;fontSize=16;" vertex="1" parent="1">
          <mxGeometry x="-109" y="706" width="63" height="31" as="geometry" />
        </mxCell>
        <mxCell id="h3pUcmXuetGUe7hEGyPd-117" value="1" style="text;html=1;align=center;verticalAlign=middle;resizable=0;points=[];autosize=1;strokeColor=none;fillColor=none;fontSize=16;" vertex="1" parent="1">
          <mxGeometry x="-99" y="746" width="27" height="31" as="geometry" />
        </mxCell>
        <mxCell id="h3pUcmXuetGUe7hEGyPd-118" value="第一层只有一个所以只有1，&lt;div&gt;然后将1的左右子节点放入队列&lt;/div&gt;&lt;div&gt;1弹出depth+1&lt;/div&gt;" style="text;html=1;align=center;verticalAlign=middle;resizable=0;points=[];autosize=1;strokeColor=none;fillColor=none;fontSize=16;" vertex="1" parent="1">
          <mxGeometry x="-102.5" y="781" width="235" height="70" as="geometry" />
        </mxCell>
        <mxCell id="h3pUcmXuetGUe7hEGyPd-119" value="" style="shape=partialRectangle;whiteSpace=wrap;html=1;bottom=0;top=0;fillColor=none;direction=south;" vertex="1" parent="1">
          <mxGeometry x="226" y="737" width="242" height="49" as="geometry" />
        </mxCell>
        <mxCell id="h3pUcmXuetGUe7hEGyPd-120" value="2" style="text;html=1;align=center;verticalAlign=middle;resizable=0;points=[];autosize=1;strokeColor=none;fillColor=none;fontSize=16;" vertex="1" parent="1">
          <mxGeometry x="226" y="746" width="27" height="31" as="geometry" />
        </mxCell>
        <mxCell id="h3pUcmXuetGUe7hEGyPd-121" value="" style="endArrow=classic;html=1;rounded=0;fontSize=12;startSize=8;endSize=8;curved=1;" edge="1" parent="1">
          <mxGeometry width="50" height="50" relative="1" as="geometry">
            <mxPoint x="144" y="767" as="sourcePoint" />
            <mxPoint x="215" y="765" as="targetPoint" />
          </mxGeometry>
        </mxCell>
        <mxCell id="h3pUcmXuetGUe7hEGyPd-122" value="queue" style="text;html=1;align=center;verticalAlign=middle;resizable=0;points=[];autosize=1;strokeColor=none;fillColor=none;fontSize=16;" vertex="1" parent="1">
          <mxGeometry x="228" y="703" width="63" height="31" as="geometry" />
        </mxCell>
        <mxCell id="h3pUcmXuetGUe7hEGyPd-123" value="7" style="text;html=1;align=center;verticalAlign=middle;resizable=0;points=[];autosize=1;strokeColor=none;fillColor=none;fontSize=16;" vertex="1" parent="1">
          <mxGeometry x="256" y="746" width="27" height="31" as="geometry" />
        </mxCell>
        <mxCell id="h3pUcmXuetGUe7hEGyPd-124" value="此时的层结点为2所以循环两遍&lt;div&gt;弹出元素后放入左右子节点&lt;/div&gt;&lt;div&gt;depth++&lt;/div&gt;" style="text;html=1;align=center;verticalAlign=middle;resizable=0;points=[];autosize=1;strokeColor=none;fillColor=none;fontSize=16;" vertex="1" parent="1">
          <mxGeometry x="235" y="781.5" width="235" height="70" as="geometry" />
        </mxCell>
        <mxCell id="h3pUcmXuetGUe7hEGyPd-125" value="" style="shape=partialRectangle;whiteSpace=wrap;html=1;bottom=0;top=0;fillColor=none;direction=south;" vertex="1" parent="1">
          <mxGeometry x="544" y="737" width="242" height="49" as="geometry" />
        </mxCell>
        <mxCell id="h3pUcmXuetGUe7hEGyPd-127" value="queue" style="text;html=1;align=center;verticalAlign=middle;resizable=0;points=[];autosize=1;strokeColor=none;fillColor=none;fontSize=16;" vertex="1" parent="1">
          <mxGeometry x="546" y="703" width="63" height="31" as="geometry" />
        </mxCell>
        <mxCell id="h3pUcmXuetGUe7hEGyPd-129" value="" style="endArrow=classic;html=1;rounded=0;fontSize=12;startSize=8;endSize=8;curved=1;" edge="1" parent="1">
          <mxGeometry width="50" height="50" relative="1" as="geometry">
            <mxPoint x="464" y="760" as="sourcePoint" />
            <mxPoint x="535" y="760" as="targetPoint" />
          </mxGeometry>
        </mxCell>
        <mxCell id="h3pUcmXuetGUe7hEGyPd-130" value="3" style="text;html=1;align=center;verticalAlign=middle;resizable=0;points=[];autosize=1;strokeColor=none;fillColor=none;fontSize=16;" vertex="1" parent="1">
          <mxGeometry x="557" y="746" width="27" height="31" as="geometry" />
        </mxCell>
        <mxCell id="h3pUcmXuetGUe7hEGyPd-131" value="6" style="text;html=1;align=center;verticalAlign=middle;resizable=0;points=[];autosize=1;strokeColor=none;fillColor=none;fontSize=16;" vertex="1" parent="1">
          <mxGeometry x="591" y="746" width="27" height="31" as="geometry" />
        </mxCell>
        <mxCell id="h3pUcmXuetGUe7hEGyPd-134" value="poll:1" style="text;html=1;align=center;verticalAlign=middle;resizable=0;points=[];autosize=1;strokeColor=none;fillColor=none;fontSize=16;" vertex="1" parent="1">
          <mxGeometry x="-19.5" y="688.5" width="56" height="31" as="geometry" />
        </mxCell>
        <mxCell id="h3pUcmXuetGUe7hEGyPd-135" value="poll:2 7" style="text;html=1;align=center;verticalAlign=middle;resizable=0;points=[];autosize=1;strokeColor=none;fillColor=none;fontSize=16;" vertex="1" parent="1">
          <mxGeometry x="335.5" y="690.5" width="70" height="31" as="geometry" />
        </mxCell>
        <mxCell id="h3pUcmXuetGUe7hEGyPd-136" value="poll: 3 6" style="text;html=1;align=center;verticalAlign=middle;resizable=0;points=[];autosize=1;strokeColor=none;fillColor=none;fontSize=16;" vertex="1" parent="1">
          <mxGeometry x="651" y="701" width="74" height="31" as="geometry" />
        </mxCell>
        <mxCell id="h3pUcmXuetGUe7hEGyPd-137" value="按照前面类推&lt;div&gt;depth++&lt;/div&gt;" style="text;html=1;align=center;verticalAlign=middle;resizable=0;points=[];autosize=1;strokeColor=none;fillColor=none;fontSize=16;" vertex="1" parent="1">
          <mxGeometry x="611" y="782.5" width="114" height="50" as="geometry" />
        </mxCell>
        <mxCell id="h3pUcmXuetGUe7hEGyPd-138" value="" style="shape=partialRectangle;whiteSpace=wrap;html=1;bottom=0;top=0;fillColor=none;direction=south;" vertex="1" parent="1">
          <mxGeometry x="873" y="740" width="242" height="49" as="geometry" />
        </mxCell>
        <mxCell id="h3pUcmXuetGUe7hEGyPd-139" value="queue" style="text;html=1;align=center;verticalAlign=middle;resizable=0;points=[];autosize=1;strokeColor=none;fillColor=none;fontSize=16;" vertex="1" parent="1">
          <mxGeometry x="875" y="706" width="63" height="31" as="geometry" />
        </mxCell>
        <mxCell id="h3pUcmXuetGUe7hEGyPd-140" value="" style="endArrow=classic;html=1;rounded=0;fontSize=12;startSize=8;endSize=8;curved=1;" edge="1" parent="1">
          <mxGeometry width="50" height="50" relative="1" as="geometry">
            <mxPoint x="793" y="763" as="sourcePoint" />
            <mxPoint x="864" y="763" as="targetPoint" />
          </mxGeometry>
        </mxCell>
        <mxCell id="h3pUcmXuetGUe7hEGyPd-141" value="5" style="text;html=1;align=center;verticalAlign=middle;resizable=0;points=[];autosize=1;strokeColor=none;fillColor=none;fontSize=16;" vertex="1" parent="1">
          <mxGeometry x="886" y="749" width="27" height="31" as="geometry" />
        </mxCell>
        <mxCell id="h3pUcmXuetGUe7hEGyPd-143" value="最后得到叶子节点5&lt;div&gt;depth++&lt;/div&gt;" style="text;html=1;align=center;verticalAlign=middle;resizable=0;points=[];autosize=1;strokeColor=none;fillColor=none;fontSize=16;" vertex="1" parent="1">
          <mxGeometry x="920" y="785.5" width="155" height="50" as="geometry" />
        </mxCell>
      </root>
    </mxGraphModel>
  </diagram>
</mxfile>
